<?xml version="1.0" encoding="UTF-8" standalone="no"?>
<!-- Created with Inkscape (http://www.inkscape.org/) -->

<svg
   xmlns:dc="http://purl.org/dc/elements/1.1/"
   xmlns:cc="http://creativecommons.org/ns#"
   xmlns:rdf="http://www.w3.org/1999/02/22-rdf-syntax-ns#"
   xmlns:svg="http://www.w3.org/2000/svg"
   xmlns="http://www.w3.org/2000/svg"
   xmlns:sodipodi="http://sodipodi.sourceforge.net/DTD/sodipodi-0.dtd"
   xmlns:inkscape="http://www.inkscape.org/namespaces/inkscape"
   width="100"
   height="100"
   viewBox="0 0 100 99.999994"
   id="svg5359"
   version="1.1"
   inkscape:version="0.91 r13725"
   sodipodi:docname="black_woman.svg">
  <defs
     id="defs5361" />
  <sodipodi:namedview
     id="base"
     pagecolor="#ffffff"
     bordercolor="#666666"
     borderopacity="1.0"
     inkscape:pageopacity="0.0"
     inkscape:pageshadow="2"
     inkscape:zoom="3.959798"
     inkscape:cx="143.80536"
     inkscape:cy="42.941401"
     inkscape:document-units="px"
     inkscape:current-layer="layer1"
     showgrid="false"
     inkscape:snap-intersection-paths="true"
     inkscape:object-nodes="true"
     inkscape:snap-smooth-nodes="true"
     fit-margin-top="0"
     fit-margin-left="0"
     fit-margin-right="0"
     fit-margin-bottom="0"
     units="px"
     inkscape:window-width="1871"
     inkscape:window-height="1056"
     inkscape:window-x="49"
     inkscape:window-y="24"
     inkscape:window-maximized="1" />
  <metadata
     id="metadata5364">
    <rdf:RDF>
      <cc:Work
         rdf:about="">
        <dc:format>image/svg+xml</dc:format>
        <dc:type
           rdf:resource="http://purl.org/dc/dcmitype/StillImage" />
        <dc:title></dc:title>
      </cc:Work>
    </rdf:RDF>
  </metadata>
  <g
     inkscape:label="Layer 1"
     inkscape:groupmode="layer"
     id="layer1"
     transform="translate(332.9649,-979.28055)">
    <path
       style="fill:none;fill-rule:evenodd;stroke:#000000;stroke-width:1.2251426;stroke-linecap:butt;stroke-linejoin:miter;stroke-miterlimit:4;stroke-dasharray:none;stroke-opacity:1"
       d="m -268.04729,1042.6305 2.61478,-1.9087 c 0,0 0.0746,4.4457 0.43562,6.6313 0.20004,1.2111 0.33935,2.494 0.95312,3.5571 0.66282,1.148 1.87475,1.8747 2.81213,2.8121 l 1.31265,1.3127 5.68816,5.6881 c 2.15129,2.1513 7.73898,3.6963 6.45388,6.4539 -9.81357,21.0586 -69.43647,-6.0411 -69.43647,-6.0411 0,0 10.68026,-2.5363 15.88527,-4.2564 2.16899,-0.7168 4.43119,-1.3167 6.37294,-2.5201 1.36847,-0.848 2.85187,-1.8005 3.58933,-3.2316 1.21902,-2.3656 0.90703,-7.932 0.90703,-7.932"
       id="path5918"
       inkscape:connector-curvature="0"
       sodipodi:nodetypes="ccaaaaaacaaac" />
    <path
       style="fill:none;fill-opacity:1;fill-rule:evenodd;stroke:#000000;stroke-width:1.225;stroke-linecap:butt;stroke-linejoin:miter;stroke-miterlimit:4;stroke-dasharray:none;stroke-opacity:1"
       d="m -295.23882,1026.1405 c 0.92249,3.4358 -0.10769,7.2797 1.82649,10.4578 1.67448,5.0028 4.41806,10.2663 9.37684,12.6481 3.84958,1.766 8.06164,-0.4185 11.15729,-2.7162 2.26304,-1.7906 4.52134,-3.6039 6.84657,-5.2989 2.64218,-2.6378 3.9919,-6.3038 4.6529,-9.8912 0.94005,-2.3596 3.44463,0.5172 4.66638,-1.886 2.99755,-3.461 2.83041,-8.4964 2.26072,-12.7701 -0.33957,-1.2471 -1.98462,-1.9021 -1.38645,-3.7965 -0.19338,-2.5382 -0.82805,-5.0429 -1.10414,-7.6015 -0.65997,-3.6069 -1.48283,-7.80211 -4.98686,-9.74194 -5.32322,-3.32741 -11.81149,-3.35991 -17.78019,-4.69007 -3.56627,-0.71149 -7.9014,-0.84453 -10.49318,2.18298 -3.00724,3.53913 -4.45314,8.19633 -5.05424,12.74073 -0.68687,2.0495 0.92622,4.7785 -0.92367,6.16 -1.37694,2.4621 -1.49855,5.4543 -1.73435,8.2167 -0.25363,2.4807 1.10733,4.2896 2.67589,5.9861 z"
       id="path5936"
       inkscape:connector-curvature="0" />
    <g
       id="g5920"
       style="stroke:#000000;stroke-width:16;stroke-miterlimit:4;stroke-dasharray:none;stroke-opacity:1"
       transform="matrix(0.07657141,0,0,0.07657141,-291.83547,992.58773)">
      <path
         style="fill:#000000;fill-opacity:1;stroke:#000000;stroke-width:16;stroke-miterlimit:4;stroke-dasharray:none;stroke-opacity:1"
         d="m 429.03891,371.64793 c -4.30013,-21.9832 1.18559,-43.99021 1.2256,-65.59554 -3.82314,-19.94413 15.53077,-39.16381 11.12774,-59.62986 -4.87541,-6.09858 -13.38277,-31.58033 -12.87371,-32.06835 -9.83558,-4.97002 -25.3362,-27.27582 -10.48708,-23.10334 -0.6535,-18.04663 -17.56173,-26.43146 -13.08047,-42.69495 2.96873,-8.46808 -15.09897,-26.70411 -4.0215,-18.44686 11.54129,11.85907 0.38304,-20.18685 -8.52033,-24.71111 -10.19034,-2.26812 -17.00006,-14.508899 -27.33772,-18.233181 -4.18775,-7.974755 -16.76362,-2.096163 -21.18078,-12.459885 -1.61272,8.301276 -3.07791,-10.595574 -11.5591,-7.943415 -4.42626,-17.848896 -11.64653,-0.145494 -27.9387,-12.31175 -15.32145,-3.025423 -27.8543,-9.804312 -39.29029,-17.731251 -11.31338,-0.705891 -20.21367,-2.733763 -29.75016,-3.517353 -9.15669,5.183504 -10.32266,17.860937 -21.84701,11.894331 -8.9315,-6.449425 -5.87463,-14.694053 -14.51909,-20.034544 -0.99545,14.656494 -15.82706,-1.489409 -18.59915,0.413497 -11.45069,-1.201798 -14.62667,-5.651881 -20.3517,-7.37025 -3.92888,4.019716 -27.17164,-1.822396 -32.67066,2.758621 C 113.6199,17.950071 91.672135,13.714065 95.226891,28.285237 80.247989,27.32407 61.603149,14.359113 71.667544,30.368713 61.435071,33.751683 60.087926,26.550082 50.713757,26.962939 c -8.299794,3.453184 -12.036632,8.015069 -11.8919,14.69591 -11.363529,8.236008 -6.429585,-25.289913 -13.6099,-4.69439 -4.004047,8.920774 8.741765,16.980598 -10.1401,22.56543 9.34232,13.320069 -7.5945079,14.34244 -18.9263374,23.839762 -2.7602831,-1.897784 -1.4705587,9.586425 -4.5736625,13.278268 9.8751912,0.02553 -7.7473551,11.896021 4.5306781,17.487411 -5.72244,12.79427 -21.0093082,1.80896 -25.1780782,15.81154 2.323275,8.20232 1.304578,21.79136 9.1474,12.23243 0.406526,14.36714 -16.734336,7.08301 -12.5,23.05751 -6.238469,8.07732 14.883784,2.35178 0.2152,13.79295 -8.924289,20.93986 -1.932228,46.33009 -6.06345,68.92216 -3.673472,11.18597 -9.451048,-18.0443 -9.08835,-23.55399 4.553773,-20.48847 -3.873055,-36.07952 -9.251653,-55.46305 -2.573169,-11.80098 0.611358,-24.0786 7.13774,-29.27229 -4.500086,-19.95658 1.221542,-36.99816 1.036788,-57.878074 12.200088,-14.995752 3.283058,-38.949087 26.662125,-38.150637 -3.186525,-17.467283 9.407178,-31.009338 8.937291,-47.0583748 16.4856262,-3.3115387 13.1073435,-28.4121222 31.629009,-35.8183852 13.125317,-23.362185 40.102317,-27.288297 54.97425,-49.485638 16.61426,-8.042536 27.642663,-8.291164 41.405693,-19.824581 6.19554,-4.83639 25.54363,-25.86745 15.46071,-10.24949 11.30004,-11.51928 30.63139,7.2527 39.6623,-12.18229 26.45469,-4.32263 53.59735,-0.0323 80.30805,-2.02538 9.60346,5.43208 24.95066,-2.57383 41.7212,0.0201 23.60562,-1.95062 40.68881,13.51837 59.1508,26.73045 26.22787,-5.81648 26.06821,26.051887 38.60168,35.084409 11.58066,6.225145 20.90748,20.647863 39.43988,25.194389 11.91387,17.913316 24.90334,24.162376 34.0256,33.713711 -18.098,5.2479919 11.90528,10.6989856 5.55847,25.18513 9.13641,6.703581 22.52573,0.407657 22.57334,18.81067 16.94528,7.455443 -8.70621,40.14811 9.32001,34.262845 7.82015,-22.314897 3.1096,13.504922 0.13164,20.071248 20.15352,8.847968 -13.22432,13.274941 3.11896,29.145178 4.65575,24.99097 6.3734,52.72459 -1.96405,76.02925 -1.00093,27.05527 -8.77184,52.89833 -15.0504,78.50209 -9.44388,6.97898 -28.5218,34.86595 -0.55514,28.80919 -13.33069,14.44239 -30.80783,27.88667 -42.82125,45.6702 -9.09605,6.48126 -5.13801,20.53444 -14.80939,27.4293 z m -4.12623,-168.75001 c 4.29924,-11.76383 -22.50481,-8.45031 0,0 z m 1.33307,-12.56445 c -10.34262,-23.77331 -6.32878,-3.5705 0,0 z M 491.63327,41.547879 c -2.49522,-13.588005 -13.09051,6.07975 0,0 z M -5.8189429,3.8511386 c -7.6028811,-10.9365741 -9.7240971,9.0143224 0,0 z M 67.488557,-75.217971 c 7.775279,-7.399974 19.289524,4.567453 16.665588,-13.240434 -10.396179,9.625203 -6.72618,-6.81907 -14.300688,7.746124 2.644353,1.261507 -14.550337,6.517781 -2.3649,5.49431 z M 486.84663,322.25223 c 3.43928,-14.27436 14.52277,8.4234 0,0 z"
         id="path5922"
         inkscape:connector-curvature="0"
         sodipodi:nodetypes="ccccccccccccccccccccccccccccccccccccccccccccccccccccccccccccccccccccccccccc" />
    </g>
    <path
       style="fill:#000000;fill-opacity:1;fill-rule:evenodd;stroke:#000000;stroke-width:1.2251426;stroke-linecap:butt;stroke-linejoin:miter;stroke-miterlimit:4;stroke-dasharray:none;stroke-opacity:1"
       d="m -294.95521,1054.3594 c 0,0 7.08821,12.3488 3.0021,15.8385 -6.80235,5.8095 -25.26031,-9.062 -25.26031,-9.062 z"
       id="path5957"
       inkscape:connector-curvature="0"
       sodipodi:nodetypes="cscc" />
    <path
       style="fill:#000000;fill-opacity:1;fill-rule:evenodd;stroke:#000000;stroke-width:1.2251426;stroke-linecap:butt;stroke-linejoin:miter;stroke-miterlimit:4;stroke-dasharray:none;stroke-opacity:1"
       d="m -264.04377,1050.9102 c 0,0 -4.35948,6.8514 -6.03179,10.5367 -1.84878,4.0742 -6.76345,8.9055 -4.37551,12.689 2.07606,3.2893 7.73243,1.7706 11.5951,1.3126 4.23814,-0.5025 8.64977,-1.7734 12.03265,-4.3755 1.55019,-1.1923 3.62214,-2.8778 3.35265,-4.8149 -0.4013,-2.8845 -4.60113,-3.5804 -6.76016,-5.535 -3.42931,-3.1046 -9.81294,-9.8129 -9.81294,-9.8129 z"
       id="path5959"
       inkscape:connector-curvature="0"
       sodipodi:nodetypes="caaaaaac" />
  </g>
</svg>
