<?xml version="1.0" encoding="UTF-8" standalone="no"?>
<svg
   xmlns:dc="http://purl.org/dc/elements/1.1/"
   xmlns:cc="http://creativecommons.org/ns#"
   xmlns:rdf="http://www.w3.org/1999/02/22-rdf-syntax-ns#"
   xmlns:svg="http://www.w3.org/2000/svg"
   xmlns="http://www.w3.org/2000/svg"
   xmlns:sodipodi="http://sodipodi.sourceforge.net/DTD/sodipodi-0.dtd"
   xmlns:inkscape="http://www.inkscape.org/namespaces/inkscape"
   xml:space="preserve"
   version="1.1"
   style="clip-rule:evenodd;fill-rule:evenodd;image-rendering:optimizeQuality;shape-rendering:geometricPrecision;text-rendering:geometricPrecision"
   viewBox="0 0 291 293.09"
   x="0px"
   y="0px"
   id="svg4155"
   inkscape:version="0.91 r13725"
   sodipodi:docname="noun_1285481_cc.svg"
   width="291"
   height="293.09"><metadata
     id="metadata4177"><rdf:RDF><cc:Work
         rdf:about=""><dc:format>image/svg+xml</dc:format><dc:type
           rdf:resource="http://purl.org/dc/dcmitype/StillImage" /><dc:title></dc:title></cc:Work></rdf:RDF></metadata><sodipodi:namedview
     pagecolor="#ffffff"
     bordercolor="#666666"
     borderopacity="1"
     objecttolerance="10"
     gridtolerance="10"
     guidetolerance="10"
     inkscape:pageopacity="0"
     inkscape:pageshadow="2"
     inkscape:window-width="1871"
     inkscape:window-height="1056"
     id="namedview4175"
     showgrid="false"
     fit-margin-top="0"
     fit-margin-left="0"
     fit-margin-right="0"
     fit-margin-bottom="0"
     inkscape:zoom="2.178979"
     inkscape:cx="145.5"
     inkscape:cy="105.965"
     inkscape:window-x="49"
     inkscape:window-y="24"
     inkscape:window-maximized="1"
     inkscape:current-layer="svg4155" /><defs
     id="defs4157"><style
       type="text/css"
       id="style4159">
   
    .fil1 {fill:black}
    .fil0 {fill:black;fill-rule:nonzero}
   
  </style></defs><g
     id="g4161"
     transform="translate(-21,-21)"><path
       class="fil0"
       d="M 293,167 C 293,237 237,293 167,293 97,293 40,237 40,167 40,97 97,40 167,40 c 70,0 126,57 126,127 z m -10,0 C 283,103 231,51 167,51 103,51 51,103 51,167 c 0,64 52,116 116,116 64,0 116,-52 116,-116 z"
       id="path4163"
       inkscape:connector-curvature="0"
       style="fill:#000000;fill-rule:nonzero" /><path
       class="fil1"
       d="m 272,167 c 0,3 -2,5 -5,5 -3,0 -5,-2 -5,-5 0,-3 2,-6 5,-6 3,0 5,3 5,6 z m -38,-67 c -2,-3 -2,-6 0,-8 2,-2 5,-2 7,0 2,2 2,5 0,8 -2,2 -5,2 -7,0 z M 92,241 c -2,-2 -2,-5 0,-7 2,-2 5,-2 8,0 2,2 2,5 0,7 -3,2 -6,2 -8,0 z m 8,-141 c -3,2 -6,2 -8,0 -2,-3 -2,-6 0,-8 2,-2 5,-2 8,0 2,2 2,5 0,8 z m 141,141 c -2,2 -5,2 -7,0 -2,-2 -2,-5 0,-7 2,-2 5,-2 7,0 2,2 2,5 0,7 z M 167,72 c -3,0 -6,-3 -6,-5 0,-3 3,-6 6,-6 3,0 5,3 5,6 0,2 -2,5 -5,5 z m 0,200 c -3,0 -6,-2 -6,-5 0,-3 3,-5 6,-5 3,0 5,2 5,5 0,3 -2,5 -5,5 z M 72,167 c 0,3 -3,5 -5,5 -3,0 -6,-2 -6,-5 0,-3 3,-6 6,-6 2,0 5,3 5,6 z"
       id="path4165"
       inkscape:connector-curvature="0"
       style="fill:#000000" /><path
       class="fil1"
       d="m 112,162 40,0 c 2,-5 5,-8 10,-10 l 0,-58 c 0,-7 9,-7 9,0 l 0,58 c 7,2 11,8 11,15 0,8 -7,15 -15,15 -7,0 -13,-4 -15,-11 l -40,0 c -6,0 -6,-9 0,-9 z m 55,-3 c -4,0 -8,4 -8,8 0,4 4,7 8,7 4,0 7,-3 7,-7 0,-4 -3,-8 -7,-8 z"
       id="path4167"
       inkscape:connector-curvature="0"
       style="fill:#000000" /><path
       class="fil0"
       d="M 312,167 C 312,247 247,312 167,312 86,312 21,247 21,167 21,86 86,21 167,21 c 80,0 145,65 145,146 z m -12,0 C 300,93 241,33 167,33 93,33 33,93 33,167 c 0,74 60,133 134,133 74,0 133,-59 133,-133 z"
       id="path4169"
       inkscape:connector-curvature="0"
       style="fill:#000000;fill-rule:nonzero" /></g><text
     x="19"
     y="287"
     font-size="5px"
     font-weight="bold"
     id="text4171"
     style="font-weight:bold;font-size:5px;font-family:'Helvetica Neue', Helvetica, Arial-Unicode, Arial, Sans-serif;fill:#000000">Created by novita dian</text>
<text
     x="19"
     y="292"
     font-size="5px"
     font-weight="bold"
     id="text4173"
     style="font-weight:bold;font-size:5px;font-family:'Helvetica Neue', Helvetica, Arial-Unicode, Arial, Sans-serif;fill:#000000">from the Noun Project</text>
</svg>